<svg xmlns="http://www.w3.org/2000/svg" xmlns:xlink="http://www.w3.org/1999/xlink" id="Capa_1" x="0px" y="0px" viewBox="0 0 480.084 480.084" style="enable-background:new 0 0 480.084 480.084;" xml:space="preserve"> <g> <g> <rect x="168.033" y="112.023" width="16" height="16"></rect> </g> </g> <g> <g> <path d="M212.681,392.751c-8.584-73.328-30.248-160.728-84.648-160.728s-76.064,87.4-84.648,160.728 c-2.757,23.187,13.805,44.219,36.992,46.976c1.651,0.196,3.313,0.295,4.976,0.296h85.36c23.351-0.009,42.273-18.946,42.264-42.296 C212.976,396.063,212.877,394.402,212.681,392.751z M128.033,248.023c29.648,0,47.304,41.552,57.6,83.12l-3.2,3.2 c-12.505,11.937-32.183,11.937-44.688,0c-18.584-18.588-48.718-18.591-67.305-0.007c-0.002,0.002-0.004,0.005-0.007,0.007 l-0.92,0.92C79.553,292.383,97.4,248.023,128.033,248.023z M190.305,415.223c-4.95,5.63-12.096,8.84-19.592,8.8h-85.36 c-7.496,0.04-14.642-3.17-19.592-8.8c-5.014-5.628-7.389-13.128-6.528-20.616c1-8.52,2.448-19.248,4.464-30.976l17.952-17.952 c12.505-11.937,32.183-11.937,44.688,0c17.106,17.124,44.346,18.663,63.272,3.576c3.472,17.264,5.744,33.448,7.144,45.352 C197.635,402.083,195.29,409.581,190.305,415.223z"></path> </g> </g> <g> <g> <path d="M281.137,3.567c-13.574-2.359-27.326-3.545-41.104-3.544c-28.952-0.029-57.668,5.211-84.744,15.464 c-9.086-15.102-28.695-19.978-43.796-10.892c-9.619,5.787-15.489,16.203-15.46,27.428v8h-8c-4.418,0-8,3.582-8,8v25.6 c-35.458,7.307-60.901,38.525-60.904,74.728c-0.068,25.003,9.871,48.994,27.6,66.624l9.464,9.424 C12.305,276.285-7.264,344.48,2.433,411.743l0.16,1.112c5.656,38.456,38.57,67.004,77.44,67.168h96 c7.775-0.015,15.503-1.21,22.92-3.544c130.591,22.695,254.854-64.773,277.548-195.364 C499.195,150.524,411.728,26.261,281.137,3.567z M112.033,32.023c0-8.837,7.163-16,16-16s16,7.163,16,16v8h-32V32.023z M96.033,56.023h64v16h-64V56.023z M176.033,464.023h-96c-30.931-0.132-57.117-22.86-61.6-53.464l-0.168-1.12 C8.87,344.255,28.954,278.27,73.072,229.375c2.846-3.162,2.72-7.999-0.288-11.008l-14.744-14.744 c-14.717-14.638-22.967-34.555-22.912-55.312c0.013-6.917,1.217-13.78,3.56-20.288h113.344v-16H47.345 c1.666-2.237,3.483-4.357,5.44-6.344c11.28-11.341,26.628-17.698,42.624-17.656h65.248c33.292,0,60.28,26.988,60.28,60.28 c0,0.003,0,0.005,0,0.008c0.055,20.757-8.195,40.674-22.912,55.312l-14.744,14.744c-3.008,3.009-3.134,7.846-0.288,11.008 c44.103,48.879,64.189,114.836,54.816,180l-0.184,1.2C233.138,441.171,206.956,463.891,176.033,464.023z M320.18,449.199 c-25.584,9.801-52.75,14.826-80.147,14.824c-5.336,0-10.664-0.336-16-0.712c15.95-12.368,26.492-30.43,29.416-50.4l0.176-1.208 c1.337-9.5,2.101-19.072,2.288-28.664c63.48-6.761,114.818-54.725,125.872-117.6l-15.752-2.8 c-9.738,55.301-54.555,97.694-110.312,104.344c-2.347-52.394-21.986-102.534-55.848-142.584l9.464-9.464 c17.729-17.63,27.668-41.621,27.6-66.624c0.027-12.456-3.015-24.727-8.856-35.728c3.952-0.368,7.952-0.56,11.952-0.56 c62.019-0.107,115.159,44.339,126.016,105.4l15.752-2.8c-12.215-68.698-71.993-118.707-141.768-118.6 c-7.453,0.047-14.891,0.668-22.248,1.856c-1.048-1.184-2.064-2.4-3.2-3.512c-10.526-10.563-23.938-17.779-38.552-20.744v-25.6 c0-4.418-3.582-8-8-8h-8v-8c0-0.4-0.104-0.8-0.12-1.176c115.525-44.257,245.053,13.518,289.31,129.042 C493.479,275.414,435.705,404.942,320.18,449.199z"></path> </g> </g> <g> <g> <path d="M383.816,231.551l-16,0.944c0.144,2.496,0.216,5,0.216,7.528s-0.072,5.032-0.216,7.528l16,0.944 c0.16-2.808,0.248-5.6,0.248-8.472S383.976,234.359,383.816,231.551z"></path> </g> </g> <g> <g> <polygon points="464.033,16.023 464.033,0.023 448.033,0.023 448.033,16.023 432.033,16.023 432.033,32.023 448.033,32.023 448.033,48.023 464.033,48.023 464.033,32.023 480.033,32.023 480.033,16.023 "></polygon> </g> </g> <g> <g> <polygon points="464.033,448.023 464.033,432.023 448.033,432.023 448.033,448.023 432.033,448.023 432.033,464.023 448.033,464.023 448.033,480.023 464.033,480.023 464.033,464.023 480.033,464.023 480.033,448.023 "></polygon> </g> </g> <g> <g> <polygon points="32.033,16.023 32.033,0.023 16.033,0.023 16.033,16.023 0.033,16.023 0.033,32.023 16.033,32.023 16.033,48.023 32.033,48.023 32.033,32.023 48.033,32.023 48.033,16.023 "></polygon> </g> </g> <g> </g> <g> </g> <g> </g> <g> </g> <g> </g> <g> </g> <g> </g> <g> </g> <g> </g> <g> </g> <g> </g> <g> </g> <g> </g> <g> </g> <g> </g> </svg>