<svg xmlns="http://www.w3.org/2000/svg" height="512pt" viewBox="-2 0 512 512.00114" width="512pt"><path d="m279.394531 470.527344c5.035157-6.882813 6.625-15.523438 4.359375-23.707032-13.390625-48.339843 7.421875-104.617187 10.894532-113.445312 3.402343-3.742188 13.566406-15.917969 18.792968-33.167969 4.035156-13.328125 5.582032-31.453125-3.8125-51.277343l188.503906-188.503907c6.6875-6.6875 10.367188-15.578125 10.367188-25.035156s-3.679688-18.347656-10.367188-25.035156c-13.804687-13.808594-36.265624-13.808594-50.070312 0l-52.636719 52.632812c-2.929687 2.929688-2.929687 7.679688 0 10.609375 2.929688 2.925782 7.675781 2.925782 10.605469 0l21.324219-21.324218 28.855469 28.859374-154.476563 154.476563c-11.140625-14.203125-23.667969-24.429687-29.542969-28.171875l112.613282-112.617188c2.929687-2.929687 2.929687-7.675781 0-10.605468-2.925782-2.929688-7.675782-2.929688-10.605469 0l-116.039063 116.039062c-17.894531-6.996094-34.148437-5.394531-46.367187-1.695312-17.257813 5.226562-29.433594 15.394531-33.171875 18.796875-8.816406 3.480469-64.992188 24.3125-113.441406 10.890625-8.179688-2.265625-16.824219-.679688-23.707032 4.359375-6.917968 5.066406-11.070312 12.875-11.386718 21.421875-.289063 7.890625.171874 15.910156 1.359374 23.949218-6.347656 1.234376-12.117187 4.765626-16.082031 10.019532-5.199219 6.898437-6.691406 15.582031-4.089843 23.824218 2.042968 6.46875 4.210937 13.367188 6.265624 19.925782-6.390624.824218-11.855468 4.53125-14.984374 10.175781-3.144532 5.664063-3.398438 12.289063-.699219 18.179687 2.472656 5.386719 5.230469 11.441407 7.773437 17.03125 1.765625 3.882813 4.179688 7.308594 7.066406 10.195313 8.046876 8.046875 19.765626 11.875 31.324219 9.625 3.847657 10.652344 11.597657 27.492187 25.566407 41.460937 13.867187 13.867188 30.507812 21.613282 41.460937 25.566407-2.25 11.5625-.445313 30.484375 19.820313 38.390625 5.71875 2.234375 11.644531 5.300781 17.035156 7.773437 5.886718 2.699219 12.511718 2.445313 18.175781-.695312 5.644531-3.132813 9.351563-8.59375 10.175781-14.988281 6.558594 2.058593 13.457032 4.222656 19.925782 6.265624 8.242187 2.601563 16.921874 1.109376 23.824218-4.089843 5.253906-3.960938 8.785156-9.730469 10.015625-16.074219 8.039063 1.183594 16.0625 1.644531 23.949219 1.351562 8.550781-.316406 16.359375-4.464843 21.425781-11.386718zm158.566407-428.863282 20.707031-20.703124c7.953125-7.957032 20.902343-7.957032 28.855469 0 3.855468 3.855468 5.976562 8.980468 5.976562 14.429687s-2.121094 10.574219-5.976562 14.429687l-20.703126 20.703126zm-158.511719 190.886719c37.285156 37.285157 18.335937 72.199219 8.304687 85.644531l-93.949218-93.949218c13.460937-10.039063 48.367187-28.96875 85.644531 8.304687zm-234.375 22.03125c.144531-3.933593 2.0625-7.53125 5.257812-9.871093 3.15625-2.3125 7.109375-3.042969 10.84375-2.007813 28.753907 7.964844 59.222657 5.238281 82.828125.382813-24.492187 15.433593-59.835937 32.648437-97.46875 34.3125-1.238281-7.667969-1.734375-15.316407-1.460937-22.816407zm-17.730469 42.445313c2.25-2.988282 5.6875-4.640625 9.429688-4.539063 67.3125 1.804688 127.484374-43.425781 145.585937-58.472656l12.335937 12.335937c-19.300781 16.46875-84.484374 67.875-162.195312 82.964844-2.25-7.167968-4.660156-14.851562-6.921875-22.011718-1.121094-3.554688-.480469-7.300782 1.765625-10.277344zm-4.0625 73.898437c-2.546875-5.605469-5.382812-11.640625-7.789062-17.078125-2.210938-4.988281 1.757812-6.941406 3.964843-7.226562 54.464844-7.007813 103.570313-32.308594 135.175781-52.304688 24.5-15.496094 42.292969-30.03125 50.714844-37.3125l19.484375 19.484375c-75.21875 73.179688-144.15625 97.570313-179.011719 105.621094-9.152343 2.113281-18.628906-2.589844-22.539062-11.183594zm39.367188 22.308594c26.941406-7.726563 65.992187-23.238281 110.339843-54.222656-30.984375 44.351562-46.496093 83.402343-54.222656 110.34375-8.914063-3.375-23.09375-10.066407-34.574219-21.546875-11.445312-11.445313-18.136718-25.589844-21.542968-34.574219zm95.503906 103.273437c-5.554688-2.117187-11.472656-5.242187-17.078125-7.792968-8.59375-3.90625-13.296875-13.382813-11.183594-22.535156 8.050781-34.855469 32.441406-103.792969 105.621094-179.011719l19.484375 19.484375c-7.28125 8.421875-22.242188 25.949218-37.3125 50.714844-45.203125 74.285156-51.917969 132.183593-52.304688 135.175781-.285156 2.207031-2.125 5.910156-7.226562 3.964843zm99.265625-29.582031c-7.496094.273438-15.148438-.222656-22.820313-1.460937.253906-5.753906.867188-11.621094 1.851563-17.535156.675781-4.089844-2.085938-7.949219-6.171875-8.628907-4.085938-.675781-7.949219 2.085938-8.628906 6.171875-1.675782 10.105469-2.394532 20.117188-2.136719 29.753906.101562 3.742188-1.550781 7.179688-4.539063 9.429688-2.976562 2.246094-6.722656 2.886719-10.277344 1.765625-7.160156-2.261719-14.84375-4.675781-22.011718-6.921875 15.085937-77.617188 66.496094-142.871094 82.96875-162.195312l12.339844 12.339843c-10.0625 12.140625-33.769532 43.335938-47.789063 83.058594-.992187 2.816406-.355469 7.621094 4.578125 9.570313 3.851562 1.523437 8.1875-.671876 9.566406-4.578126 6.707032-18.996093 15.929688-36.105468 24.59375-49.816406-4.871094 23.625-7.621094 54.144532.355469 82.945313 1.035156 3.734375.300781 7.6875-2.007813 10.84375-2.339843 3.195312-5.9375 5.113281-9.871093 5.257812zm0 0"></path></svg>