<svg xmlns="http://www.w3.org/2000/svg" height="499.312pt" viewBox="0 0 499.312 499.312" width="499.312pt"><path d="m216 75.878906 53.089844 53.089844 11.308594-11.3125-64.398438-64.398438-24.40625 24.398438 11.308594 11.3125zm0 0"></path><path d="m277.085938 136.96875 11.3125-11.3125 15.996093 15.996094-11.3125 11.316406zm0 0"></path><path d="m413.082031 293.652344 16-15.996094 11.3125 11.3125-15.996093 16zm0 0"></path><path d="m384 339.3125c3.832031 0 7.601562-1.550781 10.34375-4.28125l22.0625-22.0625-11.308594-11.3125-21.097656 21.097656-13.097656-13.097656-11.308594 11.3125 14.078125 14.078125c2.726563 2.714844 6.496094 4.265625 10.328125 4.265625zm0 0"></path><path d="m475.3125 267.3125 24-24-243.3125-243.3125-24 24-16-16-74.34375 74.34375c-8.808594 8.800781-13.65625 20.511719-13.65625 32.96875s4.847656 24.167969 13.65625 32.96875l68.199219 68.199219c3.96875 3.96875 6.144531 9.230469 6.144531 14.832031 0 5.597656-2.175781 10.863281-6.144531 14.832031l-53.167969 53.167969h-15.429688c-10.691406 0-20.738281 4.167969-28.289062 11.71875l-112.96875 112.96875v3.3125c0 39.703125 32.296875 72 72 72h3.3125l112.96875-112.96875c7.550781-7.550781 11.71875-17.601562 11.71875-28.289062v-15.429688l53.167969-53.167969c7.816406-7.800781 21.839843-7.800781 29.65625 0l21.175781 21.167969v108.6875c0 13.230469 10.769531 24 24 24s24-10.769531 24-24v-8c0-4.417969 3.585938-8 8-8s8 3.582031 8 8v64c0 13.230469 10.769531 24 24 24s24-10.769531 24-24v-40c0-4.417969 3.585938-8 8-8s8 3.582031 8 8v24c0 13.230469 10.769531 24 24 24s24-10.769531 24-24v-164.6875l11.3125-11.3125zm-219.3125-244.6875 220.6875 220.6875-12.6875 12.6875-220.6875-220.6875zm-112 92.6875c0-8.175781 3.183594-15.871094 8.96875-21.65625l63.03125-63.03125 252.6875 252.6875-63.03125 63.03125c-5.703125 5.703125-13.59375 8.96875-21.65625 8.96875s-15.953125-3.265625-21.65625-8.96875l-57.023438-57.023438c4.304688-9.390624 6.679688-19.609374 6.679688-30.007812 0-39.695312-32.296875-72-72-72-10.390625 0-20.617188 2.375-30.007812 6.679688l-57.023438-57.023438c-5.785156-5.785156-8.96875-13.480469-8.96875-21.65625zm-118.839844 306.152344 86.839844-86.839844 52.6875 52.6875-86.839844 86.839844c-6.375-25.921875-26.769531-46.3125-52.6875-52.6875zm-8.464844 14.589844c23.914063 3.753906 42.800782 22.648437 46.5625 46.5625-23.890624-3.761719-42.800781-22.671876-46.5625-46.5625zm160.273438-61.023438-.96875.96875-52.6875-52.6875.96875-.96875c4.535156-4.535156 10.558594-7.03125 16.976562-7.03125h15.429688l27.3125 27.3125v15.429688c0 6.417968-2.496094 12.441406-7.03125 16.976562zm91.03125-107.71875c-9.734375 0-19.257812 3.945312-26.144531 10.832031l-49.855469 49.855469-20.6875-20.6875 49.855469-49.855469c6.992187-6.992187 10.832031-16.273437 10.832031-26.144531 0-9.351562-3.550781-18.113281-9.855469-24.960938 5.734375-1.925781 11.75-3.039062 17.855469-3.039062 30.871094 0 56 25.121094 56 56 0 6.101562-1.105469 12.121094-3.039062 17.863281-6.777344-6.222656-15.738282-9.863281-24.960938-9.863281zm196 192c0 4.414062-3.585938 8-8 8s-8-3.585938-8-8v-24c0-13.234375-10.769531-24-24-24s-24 10.765625-24 24v40c0 4.414062-3.585938 8-8 8s-8-3.585938-8-8v-64c0-13.234375-10.769531-24-24-24s-24 10.765625-24 24v8c0 4.414062-3.585938 8-8 8s-8-3.585938-8-8v-92.6875l31.03125 31.03125c8.679688 8.679688 20.695312 13.65625 32.96875 13.65625s24.289062-4.976562 32.96875-13.65625l47.03125-47.03125zm0 0"></path></svg>