<svg xmlns="http://www.w3.org/2000/svg" height="496pt" viewBox="0 0 496 496" width="496pt"><path d="m480 0h-448c-8.824219 0-16 7.175781-16 16v32c0 8.824219 7.175781 16 16 16v64h-16c-8.824219 0-16 7.175781-16 16v246.59375c0 7.6875 2.199219 15.175781 6.367188 21.644531l9.632812 14.96875v68.792969h128v-75.304688l18.984375-15.183593c7.28125-5.824219 12.792969-13.230469 16.367187-21.511719h300.648438v-320c8.824219 0 16-7.175781 16-16v-32c0-8.824219-7.175781-16-16-16zm-432 64h16v64h-16zm384 304h-152v-128h152zm0-176h-152v-128h152zm0 16v16h-168v144h-16v-144h-32v-16h32v-144h16v144zm-200-16h-16v-48c0-8.824219-7.175781-16-16-16h-120v-64h152zm-64 169.785156c0 12.214844-5.472656 23.605469-15.007812 31.238282l-24.992188 19.984374v66.992188h-96v-57.496094l-12.175781-18.929687c-2.503907-3.878907-3.824219-8.367188-3.824219-12.980469v-190.59375c0-4.128906 2.480469-7.753906 5.902344-8.625 2.929687-.742188 5.160156.359375 6.523437 1.425781 2.207031 1.710938 3.574219 4.464844 3.574219 7.175781v88.023438h16v-104c0-4.40625 3.59375-8 8-8s8 3.59375 8 8v104h16v-104c0-4.40625 3.59375-8 8-8s8 3.59375 8 8v104h16v-104c0-4.40625 3.59375-8 8-8s8 3.59375 8 8v144h16v-76c0-6.617188 5.382812-12 12-12s12 5.382812 12 12zm-12-137.785156c-4.3125 0-8.351562 1.0625-12 2.808594v-42.808594c0-13.230469-10.769531-24-24-24-6.167969 0-11.742188 2.40625-16 6.238281-4.257812-3.839843-9.832031-6.238281-16-6.238281s-11.742188 2.40625-16 6.238281c-4.257812-3.832031-9.832031-6.238281-16-6.238281-10.847656 0-19.921875 7.273438-22.886719 17.167969-4.753906-2.078125-10.035156-2.59375-15.160156-1.289063-.679687.167969-1.304687.449219-1.953125.679688v-32.558594h184v176h-16v-68c0-15.441406-12.558594-28-28-28zm28 137.785156v-25.785156h16c8.824219 0 16-7.175781 16-16v-80h16v128h-48.34375c.222656-2.046875.34375-4.121094.34375-6.214844zm280 6.214844h-16v-304h16zm-432-320v-32h448l.007812 32zm0 0"></path><path d="m464 400h16v16h-16zm0 0"></path><path d="m448 416h16v16h-16zm0 0"></path><path d="m464 432h16v16h-16zm0 0"></path><path d="m480 416h16v16h-16zm0 0"></path><path d="m248 448h16v16h-16zm0 0"></path><path d="m232 464h16v16h-16zm0 0"></path><path d="m248 480h16v16h-16zm0 0"></path><path d="m264 464h16v16h-16zm0 0"></path><path d="m384 288h16v16h-16zm0 0"></path><path d="m368 304h16v16h-16zm0 0"></path><path d="m384 320h16v16h-16zm0 0"></path><path d="m400 304h16v16h-16zm0 0"></path><path d="m312 96h16v16h-16zm0 0"></path><path d="m296 112h16v16h-16zm0 0"></path><path d="m312 128h16v16h-16zm0 0"></path><path d="m328 112h16v16h-16zm0 0"></path></svg>