<svg xmlns="http://www.w3.org/2000/svg" xmlns:xlink="http://www.w3.org/1999/xlink" id="Capa_1" x="0px" y="0px" viewBox="0 0 507.268 507.268" style="enable-background:new 0 0 507.268 507.268;" xml:space="preserve" width="512" height="512"> <g> <path d="M498.604,221.578c2.019,0,3.881-0.203,5.571-1.432c1.928-1.402,3.092-3.683,3.092-6.068V25.947 c0-2.385-1.165-4.665-3.092-6.068c-1.689-1.229-3.552-1.432-5.571-1.432c-25.175,0-45.656,20.481-45.656,45.656v3.621h-1.137 c-14.048,0-26.077,8.778-30.912,21.134H259.89c-4.143,0-7.5,3.357-7.5,7.5v1.24H128.878c-39.835,0-76.825,18.049-101.485,49.519 c-2.555,3.261-1.983,7.975,1.277,10.529c3.218,2.522,8.01,1.938,10.529-1.277c21.798-27.817,54.484-43.771,89.679-43.771H252.39 v10.342H128.878c-57.09,0-103.536,46.446-103.536,103.537c0,57.09,46.446,103.536,103.536,103.536h9.423v10.342h-9.423 C66.085,340.355,15,289.27,15,226.477c0-16.145,3.324-31.751,9.879-46.388c1.693-3.78,0.001-8.217-3.779-9.91 c-3.776-1.693-8.217-0.003-9.91,3.779C3.765,190.536,0,208.206,0,226.477c0,71.064,57.814,128.878,128.878,128.878h9.423v18.076 c0,4.143,3.357,7.5,7.5,7.5h23.512v46.158c0,20.259,16.482,36.741,36.741,36.741h21.294c14.153,15.352,34.415,24.99,56.892,24.99 c22.477,0,42.739-9.639,56.893-24.99h132.776c0.007,0,0.014,0.001,0.021,0.001c0.005,0,0.01-0.001,0.015-0.001 c18.374-0.003,33.323-14.953,33.323-33.329c0-103.777-84.43-188.207-188.207-188.207h-34.671c-0.005,0-0.01,0-0.015,0h-78.32 c-20.259,0-36.741,16.481-36.741,36.74v10.403h-23.512c-4.143,0-7.5,3.357-7.5,7.5v18.075h-9.423 c-48.819,0-88.536-39.717-88.536-88.536c0-48.819,39.717-88.537,88.536-88.537H252.39v2.189c0,4.143,3.357,7.5,7.5,7.5h96.874 c4.143,0,7.5-3.357,7.5-7.5c0-4.143-3.357-7.5-7.5-7.5H267.39v-28.772h151.233v28.772h-31.859c-4.143,0-7.5,3.357-7.5,7.5 c0,4.143,3.357,7.5,7.5,7.5h32.973c3.771,14.185,16.72,24.67,32.075,24.67h1.137v3.621 C452.948,201.096,473.43,221.578,498.604,221.578z M284.239,473.821c-34.407,0-62.399-27.993-62.399-62.4s27.992-62.4,62.399-62.4 c34.407,0,62.4,27.993,62.4,62.4S318.647,473.821,284.239,473.821z M184.313,279.035c0-11.987,9.753-21.74,21.741-21.74h73.622 l27.822,53.776c1.31,2.531,3.934,4.145,6.79,4.053c0.582-0.005,62.326-0.542,107.396,44.921c2.876,2.901,7.703,2.924,10.607,0.046 c2.941-2.916,2.962-7.665,0.046-10.606c-42.524-42.895-97.199-48.553-113.564-49.265l-22.208-42.925h22.497 c95.507,0,173.207,77.7,173.207,173.207c0,7.928-5.069,14.678-12.129,17.227c-4.959-28.134-14.313-52.862-27.875-73.58 c-2.269-3.465-6.916-4.435-10.384-2.167c-3.465,2.27-4.436,6.918-2.167,10.384c12.203,18.639,20.715,40.972,25.382,66.465H351.969 c6.154-11.096,9.671-23.848,9.671-37.41c0-42.679-34.722-77.4-77.4-77.4c-42.678,0-77.399,34.722-77.399,77.4 c0,13.562,3.517,26.314,9.67,37.41h-10.456c-11.988,0-21.741-9.753-21.741-21.741V279.035z M153.301,304.438h16.012v61.493h-16.012 V304.438z M467.948,64.103c0-14.732,10.445-27.07,24.319-29.998v171.814c-13.874-2.928-24.319-15.267-24.319-29.999V64.103z M451.811,157.299c-10.029,0-18.188-8.159-18.188-18.188v-38.198c0-10.029,8.159-18.188,18.188-18.188h1.137v74.575H451.811z"></path> <path d="M284.239,379.571c-17.562,0-31.85,14.288-31.85,31.85c0,17.562,14.288,31.85,31.85,31.85 c17.562,0,31.85-14.288,31.85-31.85C316.089,393.859,301.801,379.571,284.239,379.571z M284.239,428.27 c-9.291,0-16.85-7.559-16.85-16.85c0-9.291,7.559-16.85,16.85-16.85c9.291,0,16.85,7.559,16.85,16.85 C301.089,420.711,293.53,428.27,284.239,428.27z"></path> </g> </svg>